<?xml version="1.0" encoding="UTF-8"?>
<svg version="1.1" xmlns="http://www.w3.org/2000/svg" width="1920" height="1080">
<path d="M0 0 C633.6 0 1267.2 0 1920 0 C1920 356.4 1920 712.8 1920 1080 C1286.4 1080 652.8 1080 0 1080 C0 723.6 0 367.2 0 0 Z " fill="#FEFEFE" transform="translate(0,0)"/>
<path d="M0 0 C0.65000977 0.20898926 1.30001953 0.41797852 1.96972656 0.63330078 C16.91035641 5.48627909 31.24224401 12.48526501 43 23 C43.81597656 23.68578125 44.63195312 24.3715625 45.47265625 25.078125 C65.77966623 42.52897129 81.16184548 69.41905469 83.81030273 96.33984375 C85.09634815 114.37427214 84.90106789 131.77649072 79 149 C78.60425781 150.19238281 78.20851563 151.38476562 77.80078125 152.61328125 C76.64920758 155.80784608 75.37788852 158.89678975 74 162 C73.49855469 163.13695312 72.99710938 164.27390625 72.48046875 165.4453125 C68.33603767 174.2777066 63.20775333 181.52898367 57 189 C56.36449219 189.80050781 55.72898437 190.60101563 55.07421875 191.42578125 C39.83969805 209.79202355 15.20710891 223.21711253 -8 228 C-9.47146484 228.30550781 -9.47146484 228.30550781 -10.97265625 228.6171875 C-27.53225936 231.49883476 -44.70889409 231.05959597 -61 227 C-62.16402344 226.73316406 -63.32804688 226.46632813 -64.52734375 226.19140625 C-91.82116339 219.28352164 -117.26161845 199.84708088 -132 176 C-138.05949804 165.7242589 -142.81045602 155.52691813 -146 144 C-146.19464844 143.34016113 -146.38929688 142.68032227 -146.58984375 142.00048828 C-154.92436002 113.28590077 -150.05750271 81.86237844 -135.8125 55.875 C-120.83855309 29.70483455 -96.48759475 8.88533136 -67.23828125 0.62109375 C-45.53532985 -5.28129577 -21.64802841 -7.28408503 0 0 Z " fill="#FDFDFD" transform="translate(713,242)"/>
<path d="M0 0 C0.65000977 0.20898926 1.30001953 0.41797852 1.96972656 0.63330078 C16.91035641 5.48627909 31.24224401 12.48526501 43 23 C43.81597656 23.68578125 44.63195312 24.3715625 45.47265625 25.078125 C65.77966623 42.52897129 81.16184548 69.41905469 83.81030273 96.33984375 C85.09634815 114.37427214 84.90106789 131.77649072 79 149 C78.60425781 150.19238281 78.20851563 151.38476562 77.80078125 152.61328125 C76.64920758 155.80784608 75.37788852 158.89678975 74 162 C73.49855469 163.13695312 72.99710938 164.27390625 72.48046875 165.4453125 C68.33603767 174.2777066 63.20775333 181.52898367 57 189 C56.36449219 189.80050781 55.72898437 190.60101563 55.07421875 191.42578125 C39.83969805 209.79202355 15.20710891 223.21711253 -8 228 C-9.47146484 228.30550781 -9.47146484 228.30550781 -10.97265625 228.6171875 C-27.53225936 231.49883476 -44.70889409 231.05959597 -61 227 C-62.16402344 226.73316406 -63.32804688 226.46632813 -64.52734375 226.19140625 C-91.82116339 219.28352164 -117.26161845 199.84708088 -132 176 C-138.05949804 165.7242589 -142.81045602 155.52691813 -146 144 C-146.19464844 143.34016113 -146.38929688 142.68032227 -146.58984375 142.00048828 C-154.92436002 113.28590077 -150.05750271 81.86237844 -135.8125 55.875 C-120.83855309 29.70483455 -96.48759475 8.88533136 -67.23828125 0.62109375 C-45.53532985 -5.28129577 -21.64802841 -7.28408503 0 0 Z M-63 21 C-64.06734375 21.38542969 -65.1346875 21.77085937 -66.234375 22.16796875 C-76.83397184 26.32440964 -86.26754047 31.70944937 -95 39 C-95.64324219 39.49757813 -96.28648437 39.99515625 -96.94921875 40.5078125 C-114.19158796 54.42761563 -124.61139688 75.84831069 -128.61328125 97.28515625 C-129.13560115 102.30259283 -129.18422852 107.27115302 -129.1875 112.3125 C-129.19974609 113.29412109 -129.21199219 114.27574219 -129.22460938 115.28710938 C-129.27475013 140.54133652 -117.65765007 164.35244258 -100.25 182.1875 C-85.00032393 197.24042173 -63.70892228 208.32071169 -42 209 C-41.30664551 209.02578125 -40.61329102 209.0515625 -39.89892578 209.078125 C-21.28977904 209.69317633 -5.67146647 207.48244936 11 199 C12.04800781 198.47535156 13.09601563 197.95070313 14.17578125 197.41015625 C36.90873978 185.0952158 52.53943648 164.49269805 60 140 C67.08167942 114.28378375 64.37583404 89.84796896 52.1875 66.25 C38.9634716 43.33980015 18.52597234 27.15044372 -6.8671875 19.82421875 C-8.41792969 19.41623047 -8.41792969 19.41623047 -10 19 C-11.15757812 18.64292969 -12.31515625 18.28585937 -13.5078125 17.91796875 C-28.87678713 14.13688697 -48.16748625 15.60476099 -63 21 Z " fill="#020202" transform="translate(713,242)"/>
<path d="M0 0 C7.30145469 6.0202795 14.63135886 13.04012305 15.72314453 22.88769531 C16.67990147 36.67819183 14.12576369 45.10212379 5.5 55.875 C3.38391143 58.25107902 1.16714607 60.51167341 -1.08105469 62.76245117 C-1.70960358 63.39932358 -2.33815247 64.03619598 -2.98574829 64.69236755 C-5.04244626 66.77294449 -7.10652246 68.84598503 -9.171875 70.91796875 C-10.61914944 72.37422359 -12.06635283 73.83054905 -13.51348877 75.28694153 C-16.53915116 78.32903447 -19.56912682 81.36675933 -22.6015625 84.40209961 C-26.47110384 88.27703028 -30.32421469 92.16787131 -34.17356491 96.06284618 C-37.15407465 99.07320352 -40.14587926 102.07214156 -43.14084625 105.06810951 C-44.56579068 106.49723783 -45.98664764 107.93045462 -47.4031601 109.3679409 C-61.5717004 123.72954129 -61.5717004 123.72954129 -70.5 126.875 C-71.69625 127.308125 -72.8925 127.74125 -74.125 128.1875 C-83.81955052 130.16231585 -93.80067335 128.6293378 -102.2734375 123.46484375 C-110.83556036 117.3511876 -116.43219201 110.00806274 -119.5 99.875 C-121.06681494 88.48947811 -118.22298236 79.00747436 -111.5 69.875 C-104.67740613 61.81099879 -97.17377097 54.36976763 -89.72265625 46.89453125 C-88.82702374 45.99465768 -88.82702374 45.99465768 -87.91329765 45.07660484 C-84.7597329 41.90817522 -81.60340288 38.74253298 -78.44458008 35.5793457 C-75.2092566 32.33852327 -71.98333549 29.08850713 -68.75948429 25.83627796 C-66.25163064 23.30969362 -63.73698973 20.78994612 -61.22051811 18.27194786 C-60.02886936 17.077301 -58.8396869 15.88018812 -57.65318489 14.68042946 C-42.39843822 -0.73269126 -21.20868668 -15.6574197 0 0 Z " fill="#020202" transform="translate(730.5,293.125)"/>
<path d="M0 0 C2.80969467 1.28022875 4.8539238 2.60714129 7.02441406 4.79736328 C7.86483246 5.63800827 7.86483246 5.63800827 8.722229 6.49563599 C9.31404968 7.09777924 9.90587036 7.69992249 10.515625 8.3203125 C11.13145447 8.93897186 11.74728394 9.55763123 12.3817749 10.19503784 C14.34260336 12.16703814 16.29635301 14.14588737 18.25 16.125 C19.58026799 17.46530164 20.910992 18.80515083 22.2421875 20.14453125 C25.5001015 23.42446589 28.75168533 26.71055942 32 30 C31.06216762 31.10382774 30.1229236 32.20645621 29.18310547 33.30859375 C28.66021942 33.92275146 28.13733337 34.53690918 27.59860229 35.16967773 C25.21897663 37.89423396 22.69397823 40.45506639 20.125 43 C19.60470215 43.51763916 19.0844043 44.03527832 18.54833984 44.56860352 C14.51094276 48.55670317 10.34488185 52.34834649 6 56 C5.18595703 56.72316406 5.18595703 56.72316406 4.35546875 57.4609375 C-1.004431 62.1559383 -5.32376866 63.54947311 -12.375 63.37109375 C-18.83885617 62.45730456 -23.47888771 59.06088933 -27.4375 54 C-31.3049713 48.24700252 -33.25101369 42.98659342 -32 36 C-29.60165198 29.89576416 -26.16046707 25.60672073 -21.484375 21.09375 C-20.86854553 20.48358032 -20.25271606 19.87341064 -19.6182251 19.24475098 C-17.67142878 17.32013843 -15.71112494 15.40999871 -13.75 13.5 C-12.41834806 12.18843624 -11.08760954 10.8759444 -9.7578125 9.5625 C-6.51566365 6.3641793 -3.26133297 3.1787515 0 0 Z " fill="#FCFCFC" transform="translate(658,345)"/>
<path d="M0 0 C3.45971522 0.86962107 4.97967924 2.24976657 7.55665588 4.69685364 C8.42533295 5.51425018 9.29401001 6.33164673 10.18901062 7.17381287 C11.05017487 8.00859161 11.91133911 8.84337036 12.79859924 9.70344543 C13.56670929 10.44098053 14.33481934 11.17851562 15.12620544 11.93840027 C17.42838524 14.17045816 19.70854494 16.4228122 21.98219299 18.68391418 C22.8043782 19.50039932 23.62656342 20.31688446 24.47366333 21.15811157 C26.19166359 22.86675082 27.90828117 24.57678139 29.62355042 26.28816223 C32.24710254 28.9019076 34.881137 31.50479391 37.51539612 34.10774231 C39.19248426 35.77830812 40.86893935 37.44950974 42.54469299 39.12141418 C43.32904221 39.8934166 44.11339142 40.66541901 44.92150879 41.46081543 C49.73982859 46.29899044 53.31844481 50.28234511 54.29859924 57.26594543 C53.79859924 60.70344543 53.79859924 60.70344543 51.92359924 63.64094543 C48.2055458 66.0948607 45.86847933 66.5865414 41.46635437 66.27528381 C38.46427424 65.63178223 37.30250453 64.82643809 35.07936096 62.75325012 C34.39202881 62.11721863 33.70469666 61.48118713 32.99653625 60.82588196 C32.27121704 60.12547791 31.54589783 59.42507385 30.79859924 58.70344543 C30.04862671 57.97951599 29.29865417 57.25558655 28.5259552 56.50971985 C26.03916717 54.07595133 23.57639803 51.61991419 21.11891174 49.15657043 C20.22493683 48.26355225 19.33096191 47.37053406 18.40989685 46.45045471 C16.53464248 44.57587699 14.66041296 42.70034091 12.78785706 40.82307434 C10.39055056 38.42002996 7.98872543 36.02155963 5.5855732 33.62436295 C3.28175727 31.32502554 0.98174991 29.02188632 -1.31858826 26.71907043 C-2.1799942 25.85968872 -3.04140015 25.00030701 -3.9289093 24.11488342 C-4.72378754 23.31685303 -5.51866577 22.51882263 -6.33763123 21.6966095 C-7.38731583 20.64573151 -7.38731583 20.64573151 -8.45820618 19.57362366 C-12.09592629 15.6709125 -12.72422781 13.08136568 -12.56468201 7.93391418 C-12.20140076 5.70344543 -12.20140076 5.70344543 -10.32640076 2.64094543 C-6.65730577 0.36610654 -4.28889312 -0.29268427 0 0 Z " fill="#040404" transform="translate(789.2014007568359,451.2965545654297)"/>
</svg>
